<svg height="24" viewBox="0 0 24 24" width="24" xmlns="http://www.w3.org/2000/svg"><path d="m10.8796773 2.4676627c-.0813104.06775863-.1563059.14275417-.2240645.22406454l-7.86495843 9.43795006c-.61873714.7424846-.51842003 1.8459728.22406454 2.4647099l.13960136.1049906c.28843076.1951728.62981659.3006222.98072134.3006222h2.86395839l.001 5.25c0 .9664983.78350169 1.75 1.75 1.75h6.5l.1435272-.0058012c.8993625-.0730065 1.6064728-.8260254 1.6064728-1.7441988l-.001-5.25h2.8659584c.9664983 0 1.75-.7835017 1.75-1.75 0-.4093889-.1435284-.8058214-.4056128-1.1203227l-7.8649584-9.43795006c-.5843628-.70123543-1.6011117-.82967334-2.3377649-.32054267zm1.312378 1.18434114 7.8649584 9.43795006c.0374406.0449288.0579447.101562.0579447.1600461 0 .1380712-.1119288.25-.25.25h-3.6149584c-.4142136 0-.75.3357864-.75.75v6c0 .1380712-.1119288.25-.25.25h-6.5c-.13807119 0-.25-.1119288-.25-.25v-6c0-.4142136-.33578644-.75-.75-.75h-3.61495839c-.05848412 0-.11511735-.0205041-.1600461-.0579447-.10606922-.088391-.12040024-.2460322-.03200922-.3521014l7.86495841-9.43795006c.0096798-.01161577.0203934-.02232942.0320092-.03200922.1060692-.08839102.2637104-.07406001.3521014.03200922z" fill="currentcolor"/></svg>