<svg height="24" viewBox="0 0 24 24" width="24" xmlns="http://www.w3.org/2000/svg"><path d="m16.25 20.5c.4142136 0 .75.3357864.75.75 0 .3796958-.2821539.693491-.6482294.7431534l-.1017706.0068466h-8.5c-.41421356 0-.75-.3357864-.75-.75 0-.3796958.28215388-.693491.64822944-.7431534l.10177056-.0068466zm-5.2433777-18.12881543c.6933207-.47918181 1.6347538-.39359698 2.2302987.20275442l.1074662.11778825 7.8649584 9.43795006c.2620844.3145013.4056128.7109338.4056128 1.1203227 0 .9181734-.7071103 1.6711923-1.6064728 1.7441988l-.1435272.0058012h-2.8659584l.001 2.25c0 .8671638-.6307249 1.5870138-1.4584474 1.7258229l-.1480254.0183759-.1435272.0058012h-6.5c-.9181734 0-1.67119234-.7071103-1.7441988-1.6064728l-.0058012-.1435272-.001-2.25h-2.86395839c-.29242063 0-.57823089-.0732288-.83229413-.2105856l-.14842721-.0900366-.13960136-.1049906c-.70123542-.5843628-.82967333-1.6011117-.32054267-2.3377649l.09647813-.126945 7.86495843-9.43795006.1069503-.11711417.1171142-.10695037zm1.185433 1.28081927c-.0736592-.08839102-.1954087-.11307496-.2953285-.06769542l-.0567729.0356862-.0320092.03200922-7.86495841 9.43795006c-.08839102.1060692-.07406.2637104.03200922.3521014.0299525.0249604.06510699.0423935.10254389.0512421l.05750221.0067026h3.61495839c.37969577 0 .69349096.2821539.74315338.6482294l.00684662.1017706v3c0 .1183467.08223341.2174868.19267729.2433973l.05732271.0066027h6.5c.1183467 0 .2174868-.0822334.2433973-.1926773l.0066027-.0573227v-3c0-.3796958.2821539-.693491.6482294-.7431534l.1017706-.0068466h3.6149584c.1380712 0 .25-.1119288.25-.25 0-.0389894-.0091129-.0771562-.0262817-.1115808l-.031663-.0484653z" fill="currentcolor"/></svg>