<?xml version="1.0" encoding="UTF-8" standalone="no"?>
<svg
   width="136"
   height="108"
   viewBox="0 0 136 108"
   fill="none"
   version="1.1"
   id="svg26"
   sodipodi:docname="no-history-dark.svg"
   xml:space="preserve"
   inkscape:version="1.3.2 (091e20e, 2023-11-25, custom)"
   xmlns:inkscape="http://www.inkscape.org/namespaces/inkscape"
   xmlns:sodipodi="http://sodipodi.sourceforge.net/DTD/sodipodi-0.dtd"
   xmlns="http://www.w3.org/2000/svg"
   xmlns:svg="http://www.w3.org/2000/svg"><defs
     id="defs26" /><sodipodi:namedview
     id="namedview26"
     pagecolor="#ffffff"
     bordercolor="#000000"
     borderopacity="0.25"
     inkscape:showpageshadow="2"
     inkscape:pageopacity="0.0"
     inkscape:pagecheckerboard="0"
     inkscape:deskcolor="#d1d1d1"
     inkscape:zoom="7.5277778"
     inkscape:cx="29.690037"
     inkscape:cy="25.97048"
     inkscape:window-width="1920"
     inkscape:window-height="1009"
     inkscape:window-x="1192"
     inkscape:window-y="410"
     inkscape:window-maximized="1"
     inkscape:current-layer="svg26" /><path
     d="M79.43 39.3701C71.05 39.42 62.54 39.0401 54.58 36.8201C46.62 34.6001 39.58 30.4401 33.18 25.5701C28.99 22.4001 25.18 19.88 19.74 20.26C14.4202 20.5438 9.33284 22.5318 5.23002 25.9301C-1.68998 31.9301 -0.639976 43.1801 2.12002 51.0701C6.28002 62.93 18.94 71.1801 29.69 76.5501C42.12 82.7501 55.77 86.3601 69.46 88.4301C81.46 90.2601 96.86 91.58 107.26 83.75C116.81 76.55 119.43 60.11 117.09 49.02C116.523 45.7379 114.777 42.7758 112.18 40.6901C105.47 35.7901 95.47 39.0701 87.93 39.2301C85.13 39.2901 82.29 39.3601 79.43 39.3701Z"
     fill="#272933"
     id="path1"
     style="fill:#252a2b;fill-opacity:1" /><path
     d="M38.5699 0.560059V4.87006"
     stroke="#4A5059"
     stroke-linecap="round"
     stroke-linejoin="round"
     id="path2"
     style="stroke:#a4a7b2;stroke-opacity:1" /><path
     d="M36.42 2.70996H40.72"
     stroke="#4A5059"
     stroke-linecap="round"
     stroke-linejoin="round"
     id="path3"
     style="stroke:#a4a7b2;stroke-opacity:1" /><path
     d="M120.15 86.27V90.57"
     stroke="#4A5059"
     stroke-linecap="round"
     stroke-linejoin="round"
     id="path4"
     style="stroke:#a4a7b2;stroke-opacity:1" /><path
     d="M118 88.42H122.3"
     stroke="#4A5059"
     stroke-linecap="round"
     stroke-linejoin="round"
     id="path5"
     style="stroke:#a4a7b2;stroke-opacity:1" /><path
     d="M6.07998 67.7C6.62121 67.7 7.05997 67.2612 7.05997 66.72C7.05997 66.1788 6.62121 65.74 6.07998 65.74C5.53874 65.74 5.09998 66.1788 5.09998 66.72C5.09998 67.2612 5.53874 67.7 6.07998 67.7Z"
     fill="#4A5059"
     id="path6"
     style="fill:#a4a7b2;fill-opacity:1" /><path
     d="M89.52 5.01005C90.0613 5.01005 90.5 4.57129 90.5 4.03005C90.5 3.48881 90.0613 3.05005 89.52 3.05005C88.9788 3.05005 88.54 3.48881 88.54 4.03005C88.54 4.57129 88.9788 5.01005 89.52 5.01005Z"
     fill="#4A5059"
     id="path7"
     style="fill:#a4a7b2;fill-opacity:1" /><path
     d="M62.36 107.87C82.6289 107.87 99.06 106.849 99.06 105.59C99.06 104.331 82.6289 103.31 62.36 103.31C42.0912 103.31 25.66 104.331 25.66 105.59C25.66 106.849 42.0912 107.87 62.36 107.87Z"
     fill="#272933"
     id="path8"
     style="fill:#252a2b;fill-opacity:1" /><path
     d="M34.09 12.24H87.39C88.7161 12.24 89.9879 12.7668 90.9256 13.7045C91.8632 14.6421 92.39 15.9139 92.39 17.24V80.65C92.39 81.9761 91.8632 83.2478 90.9256 84.1855C89.9879 85.1232 88.7161 85.65 87.39 85.65H27.26C25.9339 85.65 24.6622 85.1232 23.7245 84.1855C22.7868 83.2478 22.26 81.9761 22.26 80.65V24.19L34.09 12.24Z"
     fill="#4A5059"
     stroke="#4A5059"
     stroke-miterlimit="10"
     id="path9"
     style="fill:#60696f;fill-opacity:1;stroke:#313639;stroke-opacity:1" /><path
     d="M92.1499 43.15H37.1899V86.27H92.1499V43.15Z"
     fill="#2D333E"
     stroke="#4A5059"
     stroke-miterlimit="10"
     id="path10" /><path
     d="m 22.985646,23.909027 h 8.832183 c 0.256944,0 0.511337,-0.051 0.748594,-0.150022 0.237256,-0.09895 0.452638,-0.244118 0.633929,-0.42691 0.181201,-0.182881 0.324667,-0.399906 0.422194,-0.638624 0.09744,-0.238717 0.147021,-0.494368 0.145836,-0.752398 v -8.970212 z"
     fill="#4A5059"
     stroke="#2D333E"
     stroke-miterlimit="10"
     id="path11"
     style="fill:#60696f;fill-opacity:1;stroke:#313639;stroke-width:0.999995;stroke-opacity:1" /><path
     d="M91.8799 29.37H37.5199C35.4047 29.37 33.6899 31.0847 33.6899 33.2V44.83C33.6899 46.9452 35.4047 48.66 37.5199 48.66H91.8799C93.9952 48.66 95.7099 46.9452 95.7099 44.83V33.2C95.7099 31.0847 93.9952 29.37 91.8799 29.37Z"
     fill="#2D333E"
     stroke="#4A5059"
     stroke-miterlimit="10"
     id="path12"
     style="stroke:#a4a7b2;stroke-opacity:1;fill:#313639;fill-opacity:1" /><path
     d="M44.25 42.38C46.0947 42.38 47.59 40.8846 47.59 39.04C47.59 37.1953 46.0947 35.7 44.25 35.7C42.4054 35.7 40.91 37.1953 40.91 39.04C40.91 40.8846 42.4054 42.38 44.25 42.38Z"
     fill="#2D333E"
     stroke="#4A5059"
     stroke-miterlimit="10"
     id="path13"
     style="stroke:#a4a7b2;stroke-opacity:1;fill:#313639;fill-opacity:1" /><path
     d="M54.75 42.38C56.5947 42.38 58.09 40.8846 58.09 39.04C58.09 37.1953 56.5947 35.7 54.75 35.7C52.9054 35.7 51.41 37.1953 51.41 39.04C51.41 40.8846 52.9054 42.38 54.75 42.38Z"
     fill="#2D333E"
     stroke="#4A5059"
     stroke-miterlimit="10"
     id="path14"
     style="stroke:#a4a7b2;stroke-opacity:1;fill:#313639;fill-opacity:1" /><path
     d="M65.24 42.38C67.0847 42.38 68.58 40.8846 68.58 39.04C68.58 37.1953 67.0847 35.7 65.24 35.7C63.3954 35.7 61.9 37.1953 61.9 39.04C61.9 40.8846 63.3954 42.38 65.24 42.38Z"
     fill="#2D333E"
     stroke="#4A5059"
     stroke-miterlimit="10"
     id="path15"
     style="stroke:#a4a7b2;stroke-opacity:1;fill:#313639;fill-opacity:1" /><path
     d="M91.8799 50.76H37.5199C35.4047 50.76 33.6899 52.4748 33.6899 54.59V66.22C33.6899 68.3353 35.4047 70.05 37.5199 70.05H91.8799C93.9952 70.05 95.7099 68.3353 95.7099 66.22V54.59C95.7099 52.4748 93.9952 50.76 91.8799 50.76Z"
     fill="#2D333E"
     stroke="#4A5059"
     stroke-miterlimit="10"
     id="path16"
     style="stroke:#a4a7b2;stroke-opacity:1;fill:#313639;fill-opacity:1" /><path
     d="M44.25 63.77C46.0947 63.77 47.59 62.2746 47.59 60.43C47.59 58.5853 46.0947 57.09 44.25 57.09C42.4054 57.09 40.91 58.5853 40.91 60.43C40.91 62.2746 42.4054 63.77 44.25 63.77Z"
     fill="#2D333E"
     stroke="#4A5059"
     stroke-miterlimit="10"
     id="path17"
     style="stroke:#a4a7b2;stroke-opacity:1;fill:#313639;fill-opacity:1" /><path
     d="M54.75 63.77C56.5947 63.77 58.09 62.2746 58.09 60.43C58.09 58.5853 56.5947 57.09 54.75 57.09C52.9054 57.09 51.41 58.5853 51.41 60.43C51.41 62.2746 52.9054 63.77 54.75 63.77Z"
     fill="#2D333E"
     stroke="#4A5059"
     stroke-miterlimit="10"
     id="path18"
     style="stroke:#a4a7b2;stroke-opacity:1;fill:#313639;fill-opacity:1" /><path
     d="M65.24 63.77C67.0847 63.77 68.58 62.2746 68.58 60.43C68.58 58.5853 67.0847 57.09 65.24 57.09C63.3954 57.09 61.9 58.5853 61.9 60.43C61.9 62.2746 63.3954 63.77 65.24 63.77Z"
     fill="#2D333E"
     stroke="#4A5059"
     stroke-miterlimit="10"
     id="path19"
     style="stroke:#a4a7b2;stroke-opacity:1;fill:#313639;fill-opacity:1" /><path
     d="M91.8799 72.14H37.5199C35.4047 72.14 33.6899 73.8548 33.6899 75.97V87.6C33.6899 89.7153 35.4047 91.43 37.5199 91.43H91.8799C93.9952 91.43 95.7099 89.7153 95.7099 87.6V75.97C95.7099 73.8548 93.9952 72.14 91.8799 72.14Z"
     fill="#2D333E"
     stroke="#4A5059"
     stroke-miterlimit="10"
     id="path20"
     style="stroke:#a4a7b2;stroke-opacity:1;fill:#313639;fill-opacity:1" /><path
     d="M44.25 85.15C46.0947 85.15 47.59 83.6546 47.59 81.81C47.59 79.9653 46.0947 78.47 44.25 78.47C42.4054 78.47 40.91 79.9653 40.91 81.81C40.91 83.6546 42.4054 85.15 44.25 85.15Z"
     fill="#2D333E"
     stroke="#4A5059"
     stroke-miterlimit="10"
     id="path21"
     style="stroke:#a4a7b2;stroke-opacity:1;fill:#313639;fill-opacity:1" /><path
     d="M54.75 85.15C56.5947 85.15 58.09 83.6546 58.09 81.81C58.09 79.9653 56.5947 78.47 54.75 78.47C52.9054 78.47 51.41 79.9653 51.41 81.81C51.41 83.6546 52.9054 85.15 54.75 85.15Z"
     fill="#2D333E"
     stroke="#4A5059"
     stroke-miterlimit="10"
     id="path22"
     style="stroke:#a4a7b2;stroke-opacity:1;fill:#313639;fill-opacity:1" /><path
     d="M65.24 85.15C67.0847 85.15 68.58 83.6546 68.58 81.81C68.58 79.9653 67.0847 78.47 65.24 78.47C63.3954 78.47 61.9 79.9653 61.9 81.81C61.9 83.6546 63.3954 85.15 65.24 85.15Z"
     fill="#2D333E"
     stroke="#4A5059"
     stroke-miterlimit="10"
     id="path23"
     style="stroke:#a4a7b2;stroke-opacity:1;fill:#313639;fill-opacity:1" /><path
     d="M96.7999 53.73C108.249 53.73 117.53 44.4489 117.53 33C117.53 21.5512 108.249 12.27 96.7999 12.27C85.3511 12.27 76.0699 21.5512 76.0699 33C76.0699 44.4489 85.3511 53.73 96.7999 53.73Z"
     fill="#2D333E"
     stroke="#4A5059"
     stroke-miterlimit="10"
     id="path24"
     style="fill:#313639;fill-opacity:1;stroke:#a4a7b2;stroke-opacity:1" /><path
     d="M111.52 48.04L117.04 53.57"
     stroke="#4A5059"
     stroke-miterlimit="10"
     id="path25"
     style="stroke:#a4a7b2;stroke-opacity:1" /><path
     d="M116.414 50.89L114.7 52.6827C113.929 53.4891 113.958 54.7678 114.764 55.5387L129.655 69.7734C130.462 70.5443 131.74 70.5155 132.511 69.7091L134.225 67.9165C134.996 67.11 134.967 65.8314 134.16 65.0605L119.27 50.8257C118.463 50.0548 117.185 50.0836 116.414 50.89Z"
     fill="#2D333E"
     stroke="#4A5059"
     stroke-miterlimit="10"
     id="path26"
     style="stroke:#a4a7b2;stroke-opacity:1" /></svg>
