<svg width="137" height="107" viewBox="0 0 137 107" fill="none" xmlns="http://www.w3.org/2000/svg">
<path d="M80.2501 37.54C71.8701 37.59 63.3601 37.2 55.4001 34.99C47.4401 32.78 40.4001 28.61 34.0001 23.74C29.8101 20.57 26.0001 18.05 20.5601 18.43C15.2411 18.7095 10.1535 20.6941 6.05009 24.09C-0.869909 30.15 0.180093 41.35 2.94009 49.23C7.10009 61.1 19.7601 69.34 30.5101 74.71C42.9401 80.92 56.5901 84.53 70.2801 86.6C82.2801 88.42 97.6901 89.75 108.08 81.91C117.63 74.72 120.25 58.28 117.91 47.18C117.341 43.9015 115.595 40.9433 113 38.86C106.29 33.96 96.2901 37.23 88.7501 37.4C86.0001 37.46 83.1101 37.53 80.2501 37.54Z" fill="#F2F2F2"/>
<path d="M6.90009 65.87C7.44133 65.87 7.88009 65.4312 7.88009 64.89C7.88009 64.3487 7.44133 63.91 6.90009 63.91C6.35885 63.91 5.92009 64.3487 5.92009 64.89C5.92009 65.4312 6.35885 65.87 6.90009 65.87Z" fill="#CFCFCF"/>
<path d="M90.3401 3.16996C90.8813 3.16996 91.3201 2.7312 91.3201 2.18996C91.3201 1.64872 90.8813 1.20996 90.3401 1.20996C89.7988 1.20996 89.3601 1.64872 89.3601 2.18996C89.3601 2.7312 89.7988 3.16996 90.3401 3.16996Z" fill="#CFCFCF"/>
<path d="M63.1801 106.04C83.4489 106.04 99.8801 105.019 99.8801 103.76C99.8801 102.501 83.4489 101.48 63.1801 101.48C42.9112 101.48 26.4801 102.501 26.4801 103.76C26.4801 105.019 42.9112 106.04 63.1801 106.04Z" fill="#F2F2F2"/>
<path d="M34.9101 10.41H88.2101C89.5362 10.41 90.8079 10.9367 91.7456 11.8744C92.6833 12.8121 93.2101 14.0839 93.2101 15.41V78.82C93.2101 80.146 92.6833 81.4178 91.7456 82.3555C90.8079 83.2932 89.5362 83.82 88.2101 83.82H28.0801C26.754 83.82 25.4822 83.2932 24.5446 82.3555C23.6069 81.4178 23.0801 80.146 23.0801 78.82V22.36L34.9101 10.41Z" fill="white"/>
<path d="M92.9701 41.31H38.0101V84.43H92.9701V41.31Z" fill="#D2D2D2"/>
<path d="M23.0801 22.36H32.7701C33.3386 22.3573 33.8829 22.1296 34.2839 21.7267C34.685 21.3238 34.9101 20.7784 34.9101 20.21V10.41L23.0801 22.36Z" fill="white"/>
<path d="M92.7001 27.54H38.3401C36.2248 27.54 34.5101 29.2547 34.5101 31.37V43C34.5101 45.1152 36.2248 46.83 38.3401 46.83H92.7001C94.8153 46.83 96.5301 45.1152 96.5301 43V31.37C96.5301 29.2547 94.8153 27.54 92.7001 27.54Z" fill="white"/>
<path d="M45.0701 40.55C46.9147 40.55 48.4101 39.0546 48.4101 37.21C48.4101 35.3653 46.9147 33.87 45.0701 33.87C43.2255 33.87 41.7301 35.3653 41.7301 37.21C41.7301 39.0546 43.2255 40.55 45.0701 40.55Z" fill="#D2D2D2"/>
<path d="M55.5701 40.55C57.4147 40.55 58.9101 39.0546 58.9101 37.21C58.9101 35.3653 57.4147 33.87 55.5701 33.87C53.7255 33.87 52.2301 35.3653 52.2301 37.21C52.2301 39.0546 53.7255 40.55 55.5701 40.55Z" fill="#D2D2D2"/>
<path d="M66.0601 40.55C67.9047 40.55 69.4001 39.0546 69.4001 37.21C69.4001 35.3653 67.9047 33.87 66.0601 33.87C64.2155 33.87 62.7201 35.3653 62.7201 37.21C62.7201 39.0546 64.2155 40.55 66.0601 40.55Z" fill="#D2D2D2"/>
<path d="M92.7001 48.92H38.3401C36.2248 48.92 34.5101 50.6347 34.5101 52.75V64.38C34.5101 66.4952 36.2248 68.21 38.3401 68.21H92.7001C94.8153 68.21 96.5301 66.4952 96.5301 64.38V52.75C96.5301 50.6347 94.8153 48.92 92.7001 48.92Z" fill="white"/>
<path d="M45.0701 61.94C46.9147 61.94 48.4101 60.4446 48.4101 58.6C48.4101 56.7553 46.9147 55.26 45.0701 55.26C43.2255 55.26 41.7301 56.7553 41.7301 58.6C41.7301 60.4446 43.2255 61.94 45.0701 61.94Z" fill="#D2D2D2"/>
<path d="M55.5701 61.94C57.4147 61.94 58.9101 60.4446 58.9101 58.6C58.9101 56.7553 57.4147 55.26 55.5701 55.26C53.7255 55.26 52.2301 56.7553 52.2301 58.6C52.2301 60.4446 53.7255 61.94 55.5701 61.94Z" fill="#D2D2D2"/>
<path d="M66.0601 61.94C67.9047 61.94 69.4001 60.4446 69.4001 58.6C69.4001 56.7553 67.9047 55.26 66.0601 55.26C64.2155 55.26 62.7201 56.7553 62.7201 58.6C62.7201 60.4446 64.2155 61.94 66.0601 61.94Z" fill="#D2D2D2"/>
<path d="M92.7001 70.31H38.3401C36.2248 70.31 34.5101 72.0247 34.5101 74.14V85.77C34.5101 87.8852 36.2248 89.6 38.3401 89.6H92.7001C94.8153 89.6 96.5301 87.8852 96.5301 85.77V74.14C96.5301 72.0247 94.8153 70.31 92.7001 70.31Z" fill="white"/>
<path d="M45.0701 83.32C46.9147 83.32 48.4101 81.8246 48.4101 79.98C48.4101 78.1353 46.9147 76.64 45.0701 76.64C43.2255 76.64 41.7301 78.1353 41.7301 79.98C41.7301 81.8246 43.2255 83.32 45.0701 83.32Z" fill="#D2D2D2"/>
<path d="M55.5701 83.32C57.4147 83.32 58.9101 81.8246 58.9101 79.98C58.9101 78.1353 57.4147 76.64 55.5701 76.64C53.7255 76.64 52.2301 78.1353 52.2301 79.98C52.2301 81.8246 53.7255 83.32 55.5701 83.32Z" fill="#D2D2D2"/>
<path d="M66.0601 83.32C67.9047 83.32 69.4001 81.8246 69.4001 79.98C69.4001 78.1353 67.9047 76.64 66.0601 76.64C64.2155 76.64 62.7201 78.1353 62.7201 79.98C62.7201 81.8246 64.2155 83.32 66.0601 83.32Z" fill="#D2D2D2"/>
<path d="M97.6201 51.9C109.069 51.9 118.35 42.6188 118.35 31.17C118.35 19.7211 109.069 10.44 97.6201 10.44C86.1712 10.44 76.8901 19.7211 76.8901 31.17C76.8901 42.6188 86.1712 51.9 97.6201 51.9Z" fill="white"/>
<path d="M117.243 49.0502L115.53 50.8429C114.759 51.6493 114.788 52.9279 115.594 53.6988L130.485 67.9336C131.291 68.7045 132.57 68.6757 133.341 67.8693L135.054 66.0766C135.825 65.2702 135.796 63.9916 134.99 63.2207L120.099 48.9859C119.293 48.215 118.014 48.2438 117.243 49.0502Z" fill="white"/>
<path d="M80.2501 37.54L80.2483 37.04L80.2471 37.04L80.2501 37.54ZM55.4001 34.99L55.5339 34.5082L55.5339 34.5082L55.4001 34.99ZM34.0001 23.74L34.3029 23.3421L34.3018 23.3412L34.0001 23.74ZM20.5601 18.43L20.5863 18.9293L20.5949 18.9287L20.5601 18.43ZM6.05009 24.09L5.73118 23.7046L5.72069 23.7138L6.05009 24.09ZM2.94009 49.23L2.4682 49.3952L2.46823 49.3953L2.94009 49.23ZM30.5101 74.71L30.7336 74.2627L30.7335 74.2627L30.5101 74.71ZM70.2801 86.6L70.3551 86.1056L70.3548 86.1056L70.2801 86.6ZM108.08 81.91L107.779 81.5105L107.779 81.5108L108.08 81.91ZM117.91 47.18L117.417 47.2655L117.419 47.2743L117.421 47.2831L117.91 47.18ZM113 38.86L113.313 38.4701L113.304 38.4629L113.295 38.4562L113 38.86ZM88.7501 37.4L88.761 37.8998L88.7614 37.8998L88.7501 37.4ZM34.9101 10.41V9.90996C34.7766 9.90996 34.6487 9.96334 34.5548 10.0582L34.9101 10.41ZM88.2101 10.41V10.91V10.41ZM23.0801 22.36L22.7248 22.0082C22.6321 22.1018 22.5801 22.2282 22.5801 22.36H23.0801ZM92.9701 41.31H93.4701V40.81H92.9701V41.31ZM38.0101 41.31V40.81H37.5101V41.31H38.0101ZM38.0101 84.43H37.5101V84.93H38.0101V84.43ZM92.9701 84.43V84.93H93.4701V84.43H92.9701ZM32.7701 22.36V22.86L32.7724 22.86L32.7701 22.36ZM34.9101 20.21L34.4101 20.21L34.4101 20.21L34.9101 20.21ZM117.243 49.0502L116.882 48.7047L116.882 48.7047L117.243 49.0502ZM115.53 50.8429L115.891 51.1884L115.891 51.1884L115.53 50.8429ZM115.594 53.6988L115.939 53.3374L115.939 53.3374L115.594 53.6988ZM130.485 67.9336L130.139 68.295L130.139 68.295L130.485 67.9336ZM133.341 67.8693L133.702 68.2148L133.702 68.2148L133.341 67.8693ZM135.054 66.0766L134.693 65.7311L134.693 65.7311L135.054 66.0766ZM134.99 63.2207L134.644 63.5821L134.644 63.5821L134.99 63.2207ZM120.099 48.9859L120.445 48.6245L120.445 48.6245L120.099 48.9859ZM80.2471 37.04C71.8786 37.0899 63.4251 36.6991 55.5339 34.5082L55.2663 35.4717C63.2951 37.7008 71.8616 38.09 80.2531 38.04L80.2471 37.04ZM55.5339 34.5082C47.6564 32.3211 40.6738 28.1899 34.3029 23.3421L33.6973 24.1379C40.1264 29.03 47.2237 33.2388 55.2663 35.4717L55.5339 34.5082ZM34.3018 23.3412C30.1072 20.1678 26.1651 17.5372 20.5253 17.9312L20.5949 18.9287C25.8351 18.5627 29.513 20.9722 33.6984 24.1387L34.3018 23.3412ZM20.5339 17.9307C15.1076 18.2158 9.91741 20.2404 5.73131 23.7048L6.36887 24.4752C10.3895 21.1477 15.3746 19.2032 20.5863 18.9293L20.5339 17.9307ZM5.72069 23.7138C2.12732 26.8606 0.628152 31.3227 0.365893 35.9492C0.103725 40.574 1.07275 45.4111 2.4682 49.3952L3.41198 49.0647C2.04744 45.1688 1.11146 40.4659 1.36429 36.0058C1.61703 31.5472 3.05287 27.3793 6.3795 24.4661L5.72069 23.7138ZM2.46823 49.3953C4.58832 55.4447 8.86379 60.542 13.9327 64.7907C19.0031 69.0406 24.8937 72.4633 30.2866 75.1573L30.7335 74.2627C25.3765 71.5867 19.5621 68.2043 14.575 64.0243C9.58639 59.8429 5.45187 54.8852 3.41195 49.0646L2.46823 49.3953ZM30.2866 75.1572C42.777 81.3974 56.4811 85.0192 70.2053 87.0943L70.3548 86.1056C56.6991 84.0408 43.1032 80.4425 30.7336 74.2627L30.2866 75.1572ZM70.2051 87.0943C76.2138 88.0056 83.1092 88.7999 89.8154 88.3765C96.521 87.953 103.079 86.3097 108.381 82.3091L107.779 81.5108C102.691 85.3503 96.3491 86.9619 89.7523 87.3785C83.156 87.795 76.3463 87.0143 70.3551 86.1056L70.2051 87.0943ZM108.381 82.3094C113.281 78.6199 116.368 72.5897 117.94 66.1294C119.513 59.6639 119.585 52.7032 118.399 47.0768L117.421 47.2831C118.575 52.7567 118.507 59.566 116.968 65.893C115.427 72.2252 112.429 78.01 107.779 81.5105L108.381 82.3094ZM118.403 47.0944C117.812 43.696 116.003 40.6296 113.313 38.4701L112.687 39.2498C115.187 41.2569 116.869 44.1069 117.417 47.2655L118.403 47.0944ZM113.295 38.4562C109.798 35.9022 105.475 35.5014 101.16 35.7294C98.999 35.8436 96.814 36.1176 94.7166 36.3709C92.6106 36.6252 90.5956 36.8582 88.7388 36.9001L88.7614 37.8998C90.6746 37.8567 92.7371 37.6172 94.8364 37.3637C96.9443 37.1092 99.0925 36.8401 101.213 36.728C105.461 36.5035 109.493 36.9178 112.705 39.2638L113.295 38.4562ZM88.7392 36.9001C85.9872 36.9601 83.1027 37.03 80.2483 37.04L80.2518 38.04C83.1175 38.0299 86.013 37.9598 88.761 37.8998L88.7392 36.9001ZM6.90009 66.37C7.71748 66.37 8.38009 65.7073 8.38009 64.89H7.38009C7.38009 65.1551 7.16519 65.37 6.90009 65.37V66.37ZM8.38009 64.89C8.38009 64.0726 7.71747 63.41 6.90009 63.41V64.41C7.16519 64.41 7.38009 64.6249 7.38009 64.89H8.38009ZM6.90009 63.41C6.08271 63.41 5.42009 64.0726 5.42009 64.89H6.42009C6.42009 64.6249 6.63499 64.41 6.90009 64.41V63.41ZM5.42009 64.89C5.42009 65.7073 6.08271 66.37 6.90009 66.37V65.37C6.635 65.37 6.42009 65.1551 6.42009 64.89H5.42009ZM90.3401 3.66996C91.1575 3.66996 91.8201 3.00735 91.8201 2.18996H90.8201C90.8201 2.45506 90.6052 2.66996 90.3401 2.66996V3.66996ZM91.8201 2.18996C91.8201 1.37258 91.1575 0.709961 90.3401 0.709961V1.70996C90.6052 1.70996 90.8201 1.92487 90.8201 2.18996H91.8201ZM90.3401 0.709961C89.5227 0.709961 88.8601 1.37258 88.8601 2.18996H89.8601C89.8601 1.92486 90.075 1.70996 90.3401 1.70996V0.709961ZM88.8601 2.18996C88.8601 3.00734 89.5227 3.66996 90.3401 3.66996V2.66996C90.075 2.66996 89.8601 2.45506 89.8601 2.18996H88.8601ZM63.1801 106.54C73.3214 106.54 82.5073 106.285 89.1619 105.871C92.4872 105.665 95.1908 105.418 97.0687 105.142C98.0041 105.005 98.7546 104.857 99.2797 104.698C99.5386 104.619 99.7724 104.529 99.9515 104.42C100.095 104.332 100.38 104.124 100.38 103.76H99.3801C99.3801 103.553 99.5365 103.501 99.4297 103.567C99.3582 103.61 99.2192 103.671 98.9892 103.741C98.5366 103.878 97.845 104.017 96.9234 104.153C95.087 104.422 92.416 104.667 89.0999 104.873C82.4718 105.285 73.3076 105.54 63.1801 105.54V106.54ZM100.38 103.76C100.38 103.396 100.095 103.188 99.9515 103.1C99.7724 102.991 99.5386 102.901 99.2797 102.822C98.7546 102.663 98.0041 102.515 97.0687 102.378C95.1908 102.102 92.4872 101.855 89.1619 101.649C82.5073 101.235 73.3214 100.98 63.1801 100.98V101.98C73.3076 101.98 82.4718 102.235 89.0999 102.647C92.416 102.853 95.087 103.097 96.9234 103.367C97.845 103.503 98.5366 103.641 98.9892 103.779C99.2192 103.849 99.3582 103.91 99.4297 103.953C99.5365 104.019 99.3801 103.967 99.3801 103.76H100.38ZM63.1801 100.98C53.0387 100.98 43.8529 101.235 37.1983 101.649C33.873 101.855 31.1693 102.102 29.2915 102.378C28.3561 102.515 27.6056 102.663 27.0805 102.822C26.8216 102.901 26.5877 102.991 26.4086 103.1C26.2648 103.188 25.9801 103.396 25.9801 103.76H26.9801C26.9801 103.967 26.8237 104.019 26.9305 103.953C27.002 103.91 27.141 103.849 27.371 103.779C27.8236 103.641 28.5151 103.503 29.4368 103.367C31.2732 103.097 33.9442 102.853 37.2603 102.647C43.8884 102.235 53.0526 101.98 63.1801 101.98V100.98ZM25.9801 103.76C25.9801 104.124 26.2648 104.332 26.4086 104.42C26.5877 104.529 26.8216 104.619 27.0805 104.698C27.6056 104.857 28.3561 105.005 29.2915 105.142C31.1693 105.418 33.873 105.665 37.1983 105.871C43.8529 106.285 53.0387 106.54 63.1801 106.54V105.54C53.0526 105.54 43.8884 105.285 37.2603 104.873C33.9442 104.667 31.2732 104.422 29.4368 104.153C28.5151 104.017 27.8236 103.878 27.371 103.741C27.141 103.671 27.002 103.61 26.9305 103.567C26.8237 103.501 26.9801 103.553 26.9801 103.76H25.9801ZM34.9101 10.91H88.2101V9.90996H34.9101V10.91ZM88.2101 10.91C89.4036 10.91 90.5482 11.3841 91.3921 12.228L92.0992 11.5209C91.0677 10.4894 89.6688 9.90996 88.2101 9.90996V10.91ZM91.3921 12.228C92.236 13.0719 92.7101 14.2165 92.7101 15.41H93.7101C93.7101 13.9513 93.1306 12.5523 92.0992 11.5209L91.3921 12.228ZM92.7101 15.41V78.82H93.7101V15.41H92.7101ZM92.7101 78.82C92.7101 80.0134 92.236 81.158 91.3921 82.0019L92.0992 82.7091C93.1306 81.6776 93.7101 80.2786 93.7101 78.82H92.7101ZM91.3921 82.0019C90.5482 82.8459 89.4036 83.32 88.2101 83.32V84.32C89.6688 84.32 91.0677 83.7405 92.0992 82.7091L91.3921 82.0019ZM88.2101 83.32H28.0801V84.32H88.2101V83.32ZM28.0801 83.32C26.8866 83.32 25.742 82.8459 24.8981 82.0019L24.191 82.7091C25.2225 83.7405 26.6214 84.32 28.0801 84.32V83.32ZM24.8981 82.0019C24.0542 81.158 23.5801 80.0134 23.5801 78.82H22.5801C22.5801 80.2786 23.1596 81.6776 24.191 82.7091L24.8981 82.0019ZM23.5801 78.82V22.36H22.5801V78.82H23.5801ZM23.4354 22.7117L35.2654 10.7617L34.5548 10.0582L22.7248 22.0082L23.4354 22.7117ZM92.9701 40.81H38.0101V41.81H92.9701V40.81ZM37.5101 41.31V84.43H38.5101V41.31H37.5101ZM38.0101 84.93H92.9701V83.93H38.0101V84.93ZM93.4701 84.43V41.31H92.4701V84.43H93.4701ZM23.0801 22.86H32.7701V21.86H23.0801V22.86ZM32.7724 22.86C33.4731 22.8567 34.144 22.5761 34.6383 22.0794L33.9295 21.374C33.6218 21.6832 33.204 21.8579 32.7678 21.86L32.7724 22.86ZM34.6383 22.0794C35.1326 21.5828 35.4101 20.9106 35.4101 20.21L34.4101 20.21C34.4101 20.6462 34.2373 21.0648 33.9295 21.374L34.6383 22.0794ZM35.4101 20.21V10.41H34.4101V20.21H35.4101ZM92.7001 27.04H38.3401V28.04H92.7001V27.04ZM38.3401 27.04C35.9487 27.04 34.0101 28.9786 34.0101 31.37H35.0101C35.0101 29.5309 36.501 28.04 38.3401 28.04V27.04ZM34.0101 31.37V43H35.0101V31.37H34.0101ZM34.0101 43C34.0101 45.3914 35.9487 47.33 38.3401 47.33V46.33C36.501 46.33 35.0101 44.8391 35.0101 43H34.0101ZM38.3401 47.33H92.7001V46.33H38.3401V47.33ZM92.7001 47.33C95.0915 47.33 97.0301 45.3914 97.0301 43H96.0301C96.0301 44.8391 94.5392 46.33 92.7001 46.33V47.33ZM97.0301 43V31.37H96.0301V43H97.0301ZM97.0301 31.37C97.0301 28.9786 95.0915 27.04 92.7001 27.04V28.04C94.5392 28.04 96.0301 29.5309 96.0301 31.37H97.0301ZM45.0701 41.05C47.1909 41.05 48.9101 39.3307 48.9101 37.21H47.9101C47.9101 38.7784 46.6386 40.05 45.0701 40.05V41.05ZM48.9101 37.21C48.9101 35.0892 47.1909 33.37 45.0701 33.37V34.37C46.6386 34.37 47.9101 35.6415 47.9101 37.21H48.9101ZM45.0701 33.37C42.9493 33.37 41.2301 35.0892 41.2301 37.21H42.2301C42.2301 35.6415 43.5016 34.37 45.0701 34.37V33.37ZM41.2301 37.21C41.2301 39.3307 42.9493 41.05 45.0701 41.05V40.05C43.5016 40.05 42.2301 38.7784 42.2301 37.21H41.2301ZM55.5701 41.05C57.6909 41.05 59.4101 39.3307 59.4101 37.21H58.4101C58.4101 38.7784 57.1386 40.05 55.5701 40.05V41.05ZM59.4101 37.21C59.4101 35.0892 57.6909 33.37 55.5701 33.37V34.37C57.1386 34.37 58.4101 35.6415 58.4101 37.21H59.4101ZM55.5701 33.37C53.4493 33.37 51.7301 35.0892 51.7301 37.21H52.7301C52.7301 35.6415 54.0016 34.37 55.5701 34.37V33.37ZM51.7301 37.21C51.7301 39.3307 53.4493 41.05 55.5701 41.05V40.05C54.0016 40.05 52.7301 38.7785 52.7301 37.21H51.7301ZM66.0601 41.05C68.1809 41.05 69.9001 39.3307 69.9001 37.21H68.9001C68.9001 38.7784 67.6286 40.05 66.0601 40.05V41.05ZM69.9001 37.21C69.9001 35.0892 68.1809 33.37 66.0601 33.37V34.37C67.6286 34.37 68.9001 35.6415 68.9001 37.21H69.9001ZM66.0601 33.37C63.9393 33.37 62.2201 35.0892 62.2201 37.21H63.2201C63.2201 35.6415 64.4916 34.37 66.0601 34.37V33.37ZM62.2201 37.21C62.2201 39.3307 63.9393 41.05 66.0601 41.05V40.05C64.4916 40.05 63.2201 38.7785 63.2201 37.21H62.2201ZM92.7001 48.42H38.3401V49.42H92.7001V48.42ZM38.3401 48.42C35.9487 48.42 34.0101 50.3586 34.0101 52.75H35.0101C35.0101 50.9109 36.501 49.42 38.3401 49.42V48.42ZM34.0101 52.75V64.38H35.0101V52.75H34.0101ZM34.0101 64.38C34.0101 66.7714 35.9487 68.71 38.3401 68.71V67.71C36.501 67.71 35.0101 66.2191 35.0101 64.38H34.0101ZM38.3401 68.71H92.7001V67.71H38.3401V68.71ZM92.7001 68.71C95.0915 68.71 97.0301 66.7714 97.0301 64.38H96.0301C96.0301 66.2191 94.5392 67.71 92.7001 67.71V68.71ZM97.0301 64.38V52.75H96.0301V64.38H97.0301ZM97.0301 52.75C97.0301 50.3586 95.0915 48.42 92.7001 48.42V49.42C94.5392 49.42 96.0301 50.9109 96.0301 52.75H97.0301ZM45.0701 62.44C47.1909 62.44 48.9101 60.7207 48.9101 58.6H47.9101C47.9101 60.1684 46.6386 61.44 45.0701 61.44V62.44ZM48.9101 58.6C48.9101 56.4792 47.1909 54.76 45.0701 54.76V55.76C46.6386 55.76 47.9101 57.0315 47.9101 58.6H48.9101ZM45.0701 54.76C42.9493 54.76 41.2301 56.4792 41.2301 58.6H42.2301C42.2301 57.0315 43.5016 55.76 45.0701 55.76V54.76ZM41.2301 58.6C41.2301 60.7207 42.9493 62.44 45.0701 62.44V61.44C43.5016 61.44 42.2301 60.1684 42.2301 58.6H41.2301ZM55.5701 62.44C57.6909 62.44 59.4101 60.7207 59.4101 58.6H58.4101C58.4101 60.1684 57.1386 61.44 55.5701 61.44V62.44ZM59.4101 58.6C59.4101 56.4792 57.6909 54.76 55.5701 54.76V55.76C57.1386 55.76 58.4101 57.0315 58.4101 58.6H59.4101ZM55.5701 54.76C53.4493 54.76 51.7301 56.4792 51.7301 58.6H52.7301C52.7301 57.0315 54.0016 55.76 55.5701 55.76V54.76ZM51.7301 58.6C51.7301 60.7207 53.4493 62.44 55.5701 62.44V61.44C54.0016 61.44 52.7301 60.1685 52.7301 58.6H51.7301ZM66.0601 62.44C68.1809 62.44 69.9001 60.7207 69.9001 58.6H68.9001C68.9001 60.1684 67.6286 61.44 66.0601 61.44V62.44ZM69.9001 58.6C69.9001 56.4792 68.1809 54.76 66.0601 54.76V55.76C67.6286 55.76 68.9001 57.0315 68.9001 58.6H69.9001ZM66.0601 54.76C63.9393 54.76 62.2201 56.4792 62.2201 58.6H63.2201C63.2201 57.0315 64.4916 55.76 66.0601 55.76V54.76ZM62.2201 58.6C62.2201 60.7207 63.9393 62.44 66.0601 62.44V61.44C64.4916 61.44 63.2201 60.1685 63.2201 58.6H62.2201ZM92.7001 69.81H38.3401V70.81H92.7001V69.81ZM38.3401 69.81C35.9487 69.81 34.0101 71.7486 34.0101 74.14H35.0101C35.0101 72.3009 36.501 70.81 38.3401 70.81V69.81ZM34.0101 74.14V85.77H35.0101V74.14H34.0101ZM34.0101 85.77C34.0101 88.1614 35.9487 90.1 38.3401 90.1V89.1C36.501 89.1 35.0101 87.6091 35.0101 85.77H34.0101ZM38.3401 90.1H92.7001V89.1H38.3401V90.1ZM92.7001 90.1C95.0915 90.1 97.0301 88.1614 97.0301 85.77H96.0301C96.0301 87.6091 94.5392 89.1 92.7001 89.1V90.1ZM97.0301 85.77V74.14H96.0301V85.77H97.0301ZM97.0301 74.14C97.0301 71.7486 95.0915 69.81 92.7001 69.81V70.81C94.5392 70.81 96.0301 72.3009 96.0301 74.14H97.0301ZM45.0701 83.82C47.1909 83.82 48.9101 82.1007 48.9101 79.98H47.9101C47.9101 81.5485 46.6386 82.82 45.0701 82.82V83.82ZM48.9101 79.98C48.9101 77.8592 47.1909 76.14 45.0701 76.14V77.14C46.6386 77.14 47.9101 78.4115 47.9101 79.98H48.9101ZM45.0701 76.14C42.9493 76.14 41.2301 77.8592 41.2301 79.98H42.2301C42.2301 78.4115 43.5016 77.14 45.0701 77.14V76.14ZM41.2301 79.98C41.2301 82.1007 42.9493 83.82 45.0701 83.82V82.82C43.5016 82.82 42.2301 81.5485 42.2301 79.98H41.2301ZM55.5701 83.82C57.6909 83.82 59.4101 82.1007 59.4101 79.98H58.4101C58.4101 81.5485 57.1386 82.82 55.5701 82.82V83.82ZM59.4101 79.98C59.4101 77.8592 57.6909 76.14 55.5701 76.14V77.14C57.1386 77.14 58.4101 78.4115 58.4101 79.98H59.4101ZM55.5701 76.14C53.4493 76.14 51.7301 77.8592 51.7301 79.98H52.7301C52.7301 78.4115 54.0016 77.14 55.5701 77.14V76.14ZM51.7301 79.98C51.7301 82.1007 53.4493 83.82 55.5701 83.82V82.82C54.0016 82.82 52.7301 81.5485 52.7301 79.98H51.7301ZM66.0601 83.82C68.1809 83.82 69.9001 82.1007 69.9001 79.98H68.9001C68.9001 81.5485 67.6286 82.82 66.0601 82.82V83.82ZM69.9001 79.98C69.9001 77.8592 68.1809 76.14 66.0601 76.14V77.14C67.6286 77.14 68.9001 78.4115 68.9001 79.98H69.9001ZM66.0601 76.14C63.9393 76.14 62.2201 77.8592 62.2201 79.98H63.2201C63.2201 78.4115 64.4916 77.14 66.0601 77.14V76.14ZM62.2201 79.98C62.2201 82.1007 63.9393 83.82 66.0601 83.82V82.82C64.4916 82.82 63.2201 81.5485 63.2201 79.98H62.2201ZM97.6201 52.4C109.345 52.4 118.85 42.895 118.85 31.17H117.85C117.85 42.3427 108.793 51.4 97.6201 51.4V52.4ZM118.85 31.17C118.85 19.445 109.345 9.93996 97.6201 9.93996V10.94C108.793 10.94 117.85 19.9972 117.85 31.17H118.85ZM97.6201 9.93996C85.8951 9.93996 76.3901 19.445 76.3901 31.17H77.3901C77.3901 19.9972 86.4474 10.94 97.6201 10.94V9.93996ZM76.3901 31.17C76.3901 42.895 85.8951 52.4 97.6201 52.4V51.4C86.4474 51.4 77.3901 42.3427 77.3901 31.17H76.3901ZM116.882 48.7047L115.168 50.4974L115.891 51.1884L117.605 49.3957L116.882 48.7047ZM115.168 50.4974C114.207 51.5034 114.242 53.0986 115.248 54.0603L115.939 53.3374C115.333 52.7573 115.311 51.7952 115.891 51.1884L115.168 50.4974ZM115.248 54.0603L130.139 68.295L130.83 67.5722L115.939 53.3374L115.248 54.0603ZM130.139 68.295C131.145 69.2568 132.74 69.2208 133.702 68.2148L132.979 67.5238C132.399 68.1306 131.437 68.1523 130.83 67.5722L130.139 68.295ZM133.702 68.2148L135.416 66.4221L134.693 65.7311L132.979 67.5238L133.702 68.2148ZM135.416 66.4221C136.377 65.4161 136.342 63.821 135.335 62.8592L134.644 63.5821C135.251 64.1622 135.273 65.1243 134.693 65.7311L135.416 66.4221ZM135.335 62.8592L120.445 48.6245L119.754 49.3473L134.644 63.5821L135.335 62.8592ZM120.445 48.6245C119.439 47.6628 117.844 47.6987 116.882 48.7047L117.605 49.3957C118.185 48.7889 119.147 48.7672 119.754 49.3473L120.445 48.6245Z" fill="#BABABA"/>
</svg>
